<svg width="180" height="37" viewBox="0 0 180 37" fill="none" xmlns="http://www.w3.org/2000/svg"><path d="M20.9976 0.000213623H5.99763C2.68629 0.000213623 0.000632554 2.68587 0.000632554 6.00021V23.0002C0.000632554 26.3146 2.68629 29.0002 5.99763 29.0002H20.9976C24.312 29.0002 26.9976 26.3146 26.9976 23.0002V6.00021C26.9976 2.68587 24.312 0.000213623 20.9976 0.000213623Z" fill="black"/><path d="M180 20.2063L165.52 0.653687H152.904L173.314 27.8814H187.344L180 37L180 20.2063Z" fill="url(#paint0_linear)"/><path d="M45.7588 2.01636H49.9398V28.7272H45.7588V2.01636Z" fill="black"/><path d="M65.2305 15.3736L58.4336 2.01636H53.6758L62.9688 19.3491V28.7272H67.1498V19.3491L76.4756 2.01636H71.7176L65.2305 15.3736Z" fill="black"/><path d="M84.9629 2.01636H89.1439V24.9454H102.404V28.7272H84.9629V2.01636Z" fill="black"/><path d="M111.273 2.01636H115.454V28.7272H111.273V2.01636Z" fill="black"/><path d="M131.742 18.3273C131.742 21.6327 129.356 24.0182 126.051 24.0182C122.745 24.0182 120.359 21.6327 120.359 18.3273C120.359 15.0218 122.745 12.6364 126.051 12.6364C129.356 12.6364 131.742 15.0218 131.742 18.3273ZM135.923 18.3273C135.923 12.7636 131.614 8.45457 126.051 8.45457C120.487 8.45457 116.178 12.7636 116.178 18.3273C116.178 23.8909 120.487 28.2 126.051 28.2C131.614 28.2 135.923 23.8909 135.923 18.3273Z" fill="black"/><defs><linearGradient id="paint0_linear" x1="166.5" y1="0.5" x2="166.5" y2="37" gradientUnits="userSpaceOnUse"><stop stop-color="#ffffff"/><stop offset="1" stop-color="#333333"/></linearGradient></defs></svg>